<svg width="73" height="24" viewBox="0 0 73 24" fill="none" xmlns="http://www.w3.org/2000/svg">
<path d="M20.147 8.82031H15.4808C15.3956 8.21662 15.2216 7.6804 14.9588 7.21165C14.696 6.73579 14.3587 6.33097 13.9467 5.99716C13.5348 5.66335 13.0589 5.40767 12.5192 5.23011C11.9865 5.05256 11.4077 4.96378 10.7827 4.96378C9.65341 4.96378 8.66974 5.24432 7.83168 5.8054C6.99361 6.35937 6.34375 7.16903 5.8821 8.23438C5.42045 9.29261 5.18963 10.5781 5.18963 12.0909C5.18963 13.6463 5.42045 14.9531 5.8821 16.0114C6.35085 17.0696 7.00426 17.8686 7.84233 18.4084C8.6804 18.9482 9.64986 19.218 10.7507 19.218C11.3686 19.218 11.9403 19.1364 12.4659 18.973C12.9986 18.8097 13.4709 18.5717 13.8828 18.2592C14.2947 17.9396 14.6357 17.5526 14.9055 17.098C15.1825 16.6435 15.3743 16.125 15.4808 15.5426L20.147 15.5639C20.0263 16.5653 19.7244 17.5312 19.2415 18.4616C18.7656 19.3849 18.1229 20.2124 17.3132 20.9439C16.5107 21.6683 15.5518 22.2436 14.4368 22.6697C13.3288 23.0888 12.0753 23.2983 10.6761 23.2983C8.73011 23.2983 6.99006 22.858 5.45597 21.9773C3.92898 21.0966 2.72159 19.8217 1.83381 18.1527C0.953125 16.4837 0.512784 14.4631 0.512784 12.0909C0.512784 9.71165 0.960227 7.6875 1.85511 6.01847C2.75 4.34943 3.96449 3.07812 5.49858 2.20455C7.03267 1.32386 8.75852 0.883522 10.6761 0.883522C11.9403 0.883522 13.1122 1.06108 14.1918 1.41619C15.2784 1.77131 16.2408 2.28977 17.0788 2.97159C17.9169 3.64631 18.5987 4.47372 19.1243 5.45383C19.657 6.43395 19.9979 7.55611 20.147 8.82031ZM33.565 10.2905V13.8913H23.6147V10.2905H33.565ZM37.5174 23V1.18182H52.2191V4.98508H42.1303V10.1839H51.4627V13.9872H42.1303V19.1967H52.2617V23H37.5174ZM55.6522 23V20.2621L66.54 4.98508H55.6309V1.18182H72.3354V3.91974L61.437 19.1967H72.3567V23H55.6522Z" fill="white"/>
<path d="M20.147 8.82031V9.82031H21.2719L21.1401 8.70315L20.147 8.82031ZM15.4808 8.82031L14.4906 8.9601L14.6121 9.82031H15.4808V8.82031ZM14.9588 7.21165L14.0834 7.69508L14.0865 7.70065L14.9588 7.21165ZM13.9467 5.99716L13.3171 6.77409L13.3172 6.77409L13.9467 5.99716ZM12.5192 5.23011L12.2029 6.1788L12.2067 6.18004L12.5192 5.23011ZM7.83168 5.8054L8.38312 6.63963L8.388 6.63636L7.83168 5.8054ZM5.8821 8.23438L6.79869 8.63423L6.79966 8.63198L5.8821 8.23438ZM5.8821 16.0114L4.96551 16.4112L4.96779 16.4164L5.8821 16.0114ZM7.84233 18.4084L7.30085 19.2491L7.30085 19.2491L7.84233 18.4084ZM12.4659 18.973L12.1727 18.017L12.1691 18.0181L12.4659 18.973ZM13.8828 18.2592L14.4872 19.056L14.4958 19.0493L13.8828 18.2592ZM14.9055 17.098L14.0515 16.5776L14.0457 16.5875L14.9055 17.098ZM15.4808 15.5426L15.4854 14.5426L14.6479 14.5388L14.4971 15.3627L15.4808 15.5426ZM20.147 15.5639L21.1398 15.6836L21.2742 14.5691L20.1516 14.5639L20.147 15.5639ZM19.2415 18.4616L18.3539 18.0009L18.3526 18.0035L19.2415 18.4616ZM17.3132 20.9439L17.9833 21.6862L17.9836 21.6859L17.3132 20.9439ZM14.4368 22.6697L14.7905 23.6051L14.7938 23.6039L14.4368 22.6697ZM5.45597 21.9773L4.95636 22.8435L4.9581 22.8445L5.45597 21.9773ZM1.83381 18.1527L0.949374 18.6194L0.950934 18.6223L1.83381 18.1527ZM1.85511 6.01847L2.73643 6.491L2.73643 6.491L1.85511 6.01847ZM5.49858 2.20455L5.99342 3.07354L5.99645 3.0718L5.49858 2.20455ZM14.1918 1.41619L13.8793 2.36612L13.8811 2.36672L14.1918 1.41619ZM17.0788 2.97159L16.4477 3.74731L16.4517 3.75052L17.0788 2.97159ZM19.1243 5.45383L18.243 5.92642L18.2457 5.93135L19.1243 5.45383ZM20.147 7.82031H15.4808V9.82031H20.147V7.82031ZM16.471 8.68052C16.3708 7.9705 16.1621 7.31303 15.8311 6.72264L14.0865 7.70065C14.2811 8.04777 14.4204 8.46274 14.4906 8.9601L16.471 8.68052ZM15.8342 6.72822C15.5108 6.14253 15.0909 5.63719 14.5763 5.22022L13.3172 6.77409C13.6265 7.02474 13.8813 7.32906 14.0834 7.69507L15.8342 6.72822ZM14.5763 5.22023C14.0635 4.80465 13.4784 4.49294 12.8317 4.28019L12.2067 6.18004C12.6395 6.3224 13.0061 6.52205 13.3171 6.77409L14.5763 5.22023ZM12.8354 4.28143C12.1899 4.06627 11.5031 3.96378 10.7827 3.96378V5.96378C11.3122 5.96378 11.7831 6.03884 12.2029 6.1788L12.8354 4.28143ZM10.7827 3.96378C9.4799 3.96378 8.29733 4.29023 7.27535 4.97443L8.388 6.63636C9.04216 6.19841 9.82692 5.96378 10.7827 5.96378V3.96378ZM7.28024 4.97118C6.25637 5.64798 5.49101 6.62185 4.96455 7.83677L6.79966 8.63198C7.19649 7.71622 7.73085 7.07077 8.38311 6.63962L7.28024 4.97118ZM4.96552 7.83452C4.43462 9.05151 4.18963 10.4812 4.18963 12.0909H6.18963C6.18963 10.675 6.40629 9.53372 6.79868 8.63423L4.96552 7.83452ZM4.18963 12.0909C4.18963 13.7388 4.4333 15.1912 4.96552 16.4112L6.79868 15.6115C6.40761 14.7151 6.18963 13.5538 6.18963 12.0909H4.18963ZM4.96779 16.4164C5.50257 17.6237 6.27351 18.5874 7.30085 19.2491L8.38381 17.5677C7.73501 17.1498 7.19913 16.5155 6.79642 15.6064L4.96779 16.4164ZM7.30085 19.2491C8.31699 19.9036 9.47859 20.218 10.7507 20.218V18.218C9.82113 18.218 9.04381 17.9927 8.38381 17.5677L7.30085 19.2491ZM10.7507 20.218C11.4571 20.218 12.1301 20.1246 12.7627 19.9279L12.1691 18.0181C11.7506 18.1481 11.2801 18.218 10.7507 18.218V20.218ZM12.7591 19.9291C13.3953 19.734 13.9747 19.4447 14.4872 19.0559L13.2784 17.4625C12.9671 17.6987 12.6018 17.8854 12.1727 18.017L12.7591 19.9291ZM14.4958 19.0493C15.0082 18.6518 15.4324 18.1694 15.7654 17.6086L14.0457 16.5875C13.8389 16.9357 13.5813 17.2275 13.2698 17.4691L14.4958 19.0493ZM15.7595 17.6184C16.107 17.0482 16.3384 16.4119 16.4645 15.7226L14.4971 15.3627C14.4102 15.8381 14.2581 16.2388 14.0516 16.5776L15.7595 17.6184ZM15.4763 16.5426L20.1425 16.5639L20.1516 14.5639L15.4854 14.5426L15.4763 16.5426ZM19.1542 15.4442C19.0484 16.3219 18.7838 17.1727 18.3539 18.0009L20.129 18.9224C20.665 17.8898 21.0042 16.8088 21.1398 15.6836L19.1542 15.4442ZM18.3526 18.0035C17.9346 18.8145 17.3677 19.5469 16.6428 20.2019L17.9836 21.6859C18.878 20.8778 19.5966 19.9554 20.1304 18.9198L18.3526 18.0035ZM16.6432 20.2016C15.9413 20.8351 15.0916 21.349 14.0798 21.7356L14.7938 23.6039C16.0121 23.1382 17.08 22.5015 17.9833 21.6862L16.6432 20.2016ZM14.083 21.7344C13.1066 22.1037 11.9759 22.2983 10.6761 22.2983V24.2983C12.1747 24.2983 13.5511 24.0738 14.7905 23.6051L14.083 21.7344ZM10.6761 22.2983C8.88686 22.2983 7.32156 21.8952 5.95383 21.11L4.9581 22.8445C6.65855 23.8207 8.57337 24.2983 10.6761 24.2983V22.2983ZM5.95557 21.111C4.60284 20.3308 3.52306 19.1991 2.71668 17.6831L0.950934 18.6223C1.92012 20.4444 3.25512 21.8623 4.95636 22.8435L5.95557 21.111ZM2.71823 17.686C1.9305 16.1931 1.51278 14.3414 1.51278 12.0909H-0.487216C-0.487216 14.5848 -0.0242464 16.7742 0.949379 18.6194L2.71823 17.686ZM1.51278 12.0909C1.51278 9.83509 1.93693 7.98212 2.73643 6.491L0.973801 5.54593C-0.0164772 7.39288 -0.487216 9.5882 -0.487216 12.0909H1.51278ZM2.73643 6.491C3.54911 4.97527 4.63487 3.84715 5.99342 3.07353L5.00374 1.33556C3.2941 2.3091 1.95089 3.72359 0.973801 5.54593L2.73643 6.491ZM5.99645 3.0718C7.36642 2.28533 8.91809 1.88352 10.6761 1.88352V-0.116478C8.59896 -0.116478 6.69893 0.362392 5.00071 1.33729L5.99645 3.0718ZM10.6761 1.88352C11.846 1.88352 12.9112 2.04768 13.8793 2.36612L14.5042 0.466267C13.3132 0.0744794 12.0347 -0.116478 10.6761 -0.116478V1.88352ZM13.8811 2.36672C14.858 2.68596 15.7103 3.14735 16.4477 3.7473L17.7099 2.19588C16.7712 1.43219 15.6988 0.856653 14.5024 0.465662L13.8811 2.36672ZM16.4517 3.75052C17.1819 4.33834 17.7786 5.06035 18.243 5.92641L20.0056 4.98126C19.4189 3.88709 18.6519 2.95427 17.7059 2.19266L16.4517 3.75052ZM18.2457 5.93135C18.7096 6.78508 19.0176 7.7819 19.1539 8.93748L21.1401 8.70315C20.9782 7.33032 20.6043 6.08282 20.0029 4.97632L18.2457 5.93135ZM33.565 10.2905H34.565V9.29048H33.565V10.2905ZM33.565 13.8913V14.8913H34.565V13.8913H33.565ZM23.6147 13.8913H22.6147V14.8913H23.6147V13.8913ZM23.6147 10.2905V9.29048H22.6147V10.2905H23.6147ZM32.565 10.2905V13.8913H34.565V10.2905H32.565ZM33.565 12.8913H23.6147V14.8913H33.565V12.8913ZM24.6147 13.8913V10.2905H22.6147V13.8913H24.6147ZM23.6147 11.2905H33.565V9.29048H23.6147V11.2905ZM37.5174 23H36.5174V24H37.5174V23ZM37.5174 1.18182V0.181818H36.5174V1.18182H37.5174ZM52.2191 1.18182H53.2191V0.181818H52.2191V1.18182ZM52.2191 4.98508V5.98508H53.2191V4.98508H52.2191ZM42.1303 4.98508V3.98508H41.1303V4.98508H42.1303ZM42.1303 10.1839H41.1303V11.1839H42.1303V10.1839ZM51.4627 10.1839H52.4627V9.18395H51.4627V10.1839ZM51.4627 13.9872V14.9872H52.4627V13.9872H51.4627ZM42.1303 13.9872V12.9872H41.1303V13.9872H42.1303ZM42.1303 19.1967H41.1303V20.1967H42.1303V19.1967ZM52.2617 19.1967H53.2617V18.1967H52.2617V19.1967ZM52.2617 23V24H53.2617V23H52.2617ZM38.5174 23V1.18182H36.5174V23H38.5174ZM37.5174 2.18182H52.2191V0.181818H37.5174V2.18182ZM51.2191 1.18182V4.98508H53.2191V1.18182H51.2191ZM52.2191 3.98508H42.1303V5.98508H52.2191V3.98508ZM41.1303 4.98508V10.1839H43.1303V4.98508H41.1303ZM42.1303 11.1839H51.4627V9.18395H42.1303V11.1839ZM50.4627 10.1839V13.9872H52.4627V10.1839H50.4627ZM51.4627 12.9872H42.1303V14.9872H51.4627V12.9872ZM41.1303 13.9872V19.1967H43.1303V13.9872H41.1303ZM42.1303 20.1967H52.2617V18.1967H42.1303V20.1967ZM51.2617 19.1967V23H53.2617V19.1967H51.2617ZM52.2617 22H37.5174V24H52.2617V22ZM55.6522 23H54.6522V24H55.6522V23ZM55.6522 20.2621L54.8378 19.6817L54.6522 19.9422V20.2621H55.6522ZM66.54 4.98508L67.3543 5.56546L68.4806 3.98508H66.54V4.98508ZM55.6309 4.98508H54.6309V5.98508H55.6309V4.98508ZM55.6309 1.18182V0.181818H54.6309V1.18182H55.6309ZM72.3354 1.18182H73.3354V0.181818H72.3354V1.18182ZM72.3354 3.91974L73.1495 4.5005L73.3354 4.23988V3.91974H72.3354ZM61.437 19.1967L60.6229 18.616L59.4952 20.1967H61.437V19.1967ZM72.3567 19.1967H73.3567V18.1967H72.3567V19.1967ZM72.3567 23V24H73.3567V23H72.3567ZM56.6522 23V20.2621H54.6522V23H56.6522ZM56.4665 20.8425L67.3543 5.56546L65.7256 4.40471L54.8378 19.6817L56.4665 20.8425ZM66.54 3.98508H55.6309V5.98508H66.54V3.98508ZM56.6309 4.98508V1.18182H54.6309V4.98508H56.6309ZM55.6309 2.18182H72.3354V0.181818H55.6309V2.18182ZM71.3354 1.18182V3.91974H73.3354V1.18182H71.3354ZM71.5213 3.33899L60.6229 18.616L62.251 19.7775L73.1495 4.5005L71.5213 3.33899ZM61.437 20.1967H72.3567V18.1967H61.437V20.1967ZM71.3567 19.1967V23H73.3567V19.1967H71.3567ZM72.3567 22H55.6522V24H72.3567V22Z" fill="#02C2FE"/>
</svg>
