<svg width="223" height="230" viewBox="0 0 223 230" fill="none" xmlns="http://www.w3.org/2000/svg">
<g filter="url(#filter0_i_1_8)">
<path d="M57.0055 213.514C56.7801 210.541 56.5314 207.418 56.2599 204.172C19.825 170.037 -7.63096 128.965 3.72534 96.4082C6.49957 88.4548 10.2107 80.2794 16.9016 72.9585C16.9591 67.7929 17.3032 62.4992 17.9561 57.0916C23.7589 55.9382 32.9003 55.0529 44.9112 55.038L46.3078 53.4062C58.6315 -5.0771 90.808 -8.21575 126.213 14.7156L130.948 13.8318L133.94 20.0894C140.377 24.8653 146.88 30.4163 153.352 36.572C176.394 28.1429 213.077 29.4804 194.319 83.5144C194.298 83.5831 194.276 83.652 194.255 83.7209C194.772 84.4234 195.287 85.1278 195.8 85.8338C199.364 87.1772 202.964 88.5752 206.596 90.0299C206.936 89.3513 207.259 88.6897 207.564 88.0457L206.901 90.152L204.402 98.0902C208.257 103.78 211.968 109.534 215.502 115.295L208.289 134.03L159.962 209.771L107.866 223.68C102.914 228.236 94.3902 229.612 86.3719 229.418C84.6257 229.573 83.015 228.275 81.367 225.587C75.4368 220.97 69.5622 216.113 63.8485 211.071C61.5937 211.91 59.3127 212.725 57.0055 213.514Z" fill="#D9D9D9"/>
</g>
<path d="M222.231 96.5574C120.05 52.1462 41.5069 52.4103 17.9561 57.0916M150.306 157.904C91.5709 212.83 6.40104 152.79 17.9561 57.0916M24.5654 63.4114C40.4137 50.2042 52.7956 157.977 57.0055 213.514C143.945 183.784 193.602 117.481 207.564 88.0457L179.217 178.095L166.568 38.8515C181.876 96.4279 185.452 72.1692 152.067 66.5655C42.7909 48.2231 235.277 -2.29154 189.779 95.1044C233.444 -5.88724 114.019 44.0031 140.537 52.7296L105.947 11.222L161.676 78.0953L130.948 13.8318L70.5254 25.1106M17.9561 57.0916L23.9336 157.716L95.0553 215.669L208.289 134.03M17.9561 57.0916C69.0906 166.608 74.7056 230.457 86.3719 229.418M86.3719 229.418L159.962 209.771L208.289 134.03M86.3719 229.418C36.9799 192.263 -10.6219 137.54 3.72534 96.4082M86.3719 229.418C115.149 230.113 150.439 210.589 3.72534 96.4082M208.289 134.03L215.502 115.295C158.045 21.6417 53.904 -70.2404 42.0898 84.4401C30.2755 239.121 35.7552 114.434 43.3128 56.9056L70.5254 25.1106M70.5254 25.1106C153.627 29.2305 12.8267 88.8235 89.7423 48.1704C25.9752 51.1358 11.3302 74.606 3.72534 96.4082" stroke="#13A9CA" stroke-linecap="round"/>
<defs>
<filter id="filter0_i_1_8" x="0.630646" y="0.948303" width="222.1" height="232.987" filterUnits="userSpaceOnUse" color-interpolation-filters="sRGB">
<feFlood flood-opacity="0" result="BackgroundImageFix"/>
<feBlend mode="normal" in="SourceGraphic" in2="BackgroundImageFix" result="shape"/>
<feColorMatrix in="SourceAlpha" type="matrix" values="0 0 0 0 0 0 0 0 0 0 0 0 0 0 0 0 0 0 127 0" result="hardAlpha"/>
<feOffset dy="4"/>
<feGaussianBlur stdDeviation="2"/>
<feComposite in2="hardAlpha" operator="arithmetic" k2="-1" k3="1"/>
<feColorMatrix type="matrix" values="0 0 0 0 0 0 0 0 0 0 0 0 0 0 0 0 0 0 0.25 0"/>
<feBlend mode="normal" in2="shape" result="effect1_innerShadow_1_8"/>
</filter>
</defs>
</svg>
